<svg width="480" height="140" viewBox="0 0 480 140" fill="none" xmlns="http://www.w3.org/2000/svg">
  <rect width="480" height="140" rx="32" fill="white"/>
  <rect x="10" y="10" width="460" height="120" rx="28" fill="url(#paint0_linear_22_13)"/>
  <path d="M84 101L119.591 38H146.03L181.97 101H156.646L150.293 89.0508H114.97L108.617 101H84ZM122.898 73.4609H142.277L132.5 55.2031L122.898 73.4609Z" fill="white"/>
  <path d="M187.256 101V38H232.354C246.813 38 256.626 46.2305 256.626 58.7051C256.626 65.9668 252.719 71.793 246.363 74.5488L259.814 101H234.58L223.312 79.9316H210.648V101H187.256ZM210.648 62.6406H229.334C233.943 62.6406 237.072 60.2383 237.072 56.5078C237.072 52.6895 233.943 50.2871 229.334 50.2871H210.648V62.6406Z" fill="white"/>
  <path d="M267.304 101V38H314.686C332.771 38 344.627 50.375 344.627 69.5C344.627 88.625 332.771 101 314.686 101H267.304ZM290.695 82.7422H313.191C321.164 82.7422 325.857 77.0918 325.857 69.5C325.857 61.9082 321.164 56.2578 313.191 56.2578H290.695V82.7422Z" fill="white"/>
  <circle cx="385" cy="90" r="15" fill="#FFE7D4"/>
  <path d="M410.97 46C410.97 42.6863 413.656 40 416.97 40H426.004C429.317 40 432.004 42.6863 432.004 46V55.0345C432.004 58.3482 429.317 61.0345 426.004 61.0345H416.97C413.656 61.0345 410.97 58.3482 410.97 55.0345V46Z" fill="#FFE7D4"/>
  <defs>
    <linearGradient id="paint0_linear_22_13" x1="240" y1="10" x2="240" y2="130" gradientUnits="userSpaceOnUse">
      <stop stop-color="#FF7B1B"/>
      <stop offset="1" stop-color="#FF6B00"/>
    </linearGradient>
  </defs>
</svg>
