<svg width="1400" height="780" viewBox="0 0 1400 780" fill="none" xmlns="http://www.w3.org/2000/svg">
  <rect width="1400" height="780" rx="42" fill="#11161D"/>
  <rect x="24" y="24" width="1352" height="732" rx="28" fill="url(#paint0_linear_2_4)" stroke="rgba(255,255,255,0.18)" stroke-width="3"/>
  <rect x="86" y="88" width="1228" height="604" rx="22" stroke="rgba(255,255,255,0.24)" stroke-width="4"/>
  <path d="M700 88V692" stroke="rgba(255,255,255,0.24)" stroke-width="4"/>
  <circle cx="700" cy="390" r="94" stroke="rgba(255,255,255,0.22)" stroke-width="4"/>
  <path d="M86 250H232C278.392 250 316 287.608 316 334V446C316 492.392 278.392 530 232 530H86" stroke="rgba(255,255,255,0.24)" stroke-width="4"/>
  <path d="M1314 250H1168C1121.61 250 1084 287.608 1084 334V446C1084 492.392 1121.61 530 1168 530H1314" stroke="rgba(255,255,255,0.24)" stroke-width="4"/>
  <circle cx="144" cy="390" r="84" stroke="rgba(255,255,255,0.24)" stroke-width="4"/>
  <circle cx="1256" cy="390" r="84" stroke="rgba(255,255,255,0.24)" stroke-width="4"/>
  <path d="M70 120C188 78 274 54 406 54C528 54 622 84 700 128C778 84 872 54 994 54C1126 54 1212 78 1330 120" stroke="rgba(255,255,255,0.16)" stroke-width="3"/>
  <rect x="948" y="612" width="390" height="90" rx="22" fill="rgba(17,17,17,0.3)" stroke="rgba(255,255,255,0.14)"/>
  <text x="988" y="648" fill="white" font-size="20" font-family="Arial, sans-serif" font-weight="700">Ttukseom Night Session</text>
  <text x="988" y="679" fill="rgba(255,255,255,0.75)" font-size="18" font-family="Arial, sans-serif">Fast-paced 5vs5 Atmosphere</text>
  <defs>
    <linearGradient id="paint0_linear_2_4" x1="170" y1="90" x2="1288" y2="700" gradientUnits="userSpaceOnUse">
      <stop stop-color="#24374A"/>
      <stop offset="0.5" stop-color="#3C4C61"/>
      <stop offset="1" stop-color="#1D242D"/>
    </linearGradient>
  </defs>
</svg>

