<svg width="1400" height="780" viewBox="0 0 1400 780" fill="none" xmlns="http://www.w3.org/2000/svg">
  <rect width="1400" height="780" rx="42" fill="#1E1512"/>
  <rect x="24" y="24" width="1352" height="732" rx="28" fill="url(#paint0_linear_3_8)" stroke="rgba(255,255,255,0.18)" stroke-width="3"/>
  <rect x="86" y="88" width="1228" height="604" rx="22" stroke="rgba(255,255,255,0.24)" stroke-width="4"/>
  <path d="M700 88V692" stroke="rgba(255,255,255,0.24)" stroke-width="4"/>
  <circle cx="700" cy="390" r="94" stroke="rgba(255,255,255,0.22)" stroke-width="4"/>
  <path d="M86 250H232C278.392 250 316 287.608 316 334V446C316 492.392 278.392 530 232 530H86" stroke="rgba(255,255,255,0.24)" stroke-width="4"/>
  <path d="M1314 250H1168C1121.61 250 1084 287.608 1084 334V446C1084 492.392 1121.61 530 1168 530H1314" stroke="rgba(255,255,255,0.24)" stroke-width="4"/>
  <circle cx="144" cy="390" r="84" stroke="rgba(255,255,255,0.24)" stroke-width="4"/>
  <circle cx="1256" cy="390" r="84" stroke="rgba(255,255,255,0.24)" stroke-width="4"/>
  <circle cx="1140" cy="160" r="120" fill="url(#paint1_radial_3_8)" fill-opacity="0.85"/>
  <rect x="68" y="612" width="408" height="90" rx="22" fill="rgba(17,17,17,0.28)" stroke="rgba(255,255,255,0.14)"/>
  <text x="108" y="648" fill="white" font-size="20" font-family="Arial, sans-serif" font-weight="700">Banpo Weekend Start</text>
  <text x="108" y="679" fill="rgba(255,255,255,0.75)" font-size="18" font-family="Arial, sans-serif">Bright daytime court preview</text>
  <defs>
    <linearGradient id="paint0_linear_3_8" x1="130" y1="88" x2="1310" y2="690" gradientUnits="userSpaceOnUse">
      <stop stop-color="#76472A"/>
      <stop offset="0.5" stop-color="#C56B2A"/>
      <stop offset="1" stop-color="#473124"/>
    </linearGradient>
    <radialGradient id="paint1_radial_3_8" cx="0" cy="0" r="1" gradientUnits="userSpaceOnUse" gradientTransform="translate(1140 160) rotate(90) scale(120)">
      <stop stop-color="#FFF4D1"/>
      <stop offset="1" stop-color="#FFF4D1" stop-opacity="0"/>
    </radialGradient>
  </defs>
</svg>

