<svg width="2083" height="2083" version="1.1" xmlns="http://www.w3.org/2000/svg" desc="Created with imagetracer.js version 1.2.6" ><path fill="rgb(34,52,55)" stroke="rgb(34,52,55)" stroke-width="1" opacity="1" d="M 792.5 856 L 815.5 856 L 816.5 857 L 831.5 858 L 843.5 861 Q 858 867 867 878.5 L 873 895.5 L 873 913.5 L 869 934.5 L 856 979.5 L 850 994.5 Q 840.1 1016.6 822.5 1031 L 804.5 1042 L 784.5 1049 L 767.5 1052 L 744.5 1053 L 743.5 1052 L 727.5 1052 L 709.5 1048 L 696.5 1042 L 687 1033.5 Q 676.1 1021.9 678 997.5 L 683 971.5 L 699 919.5 Q 708.7 893.7 728.5 878 Q 739 869.5 752.5 864 L 769.5 859 L 780.5 858 L 781.5 857 L 791.5 857 L 792.5 856 Z M 785 906 L 776 910 Q 770 915 767 923 L 748 990 Q 747 996 750 999 L 758 1003 Q 770 1004 777 998 L 783 990 L 803 921 L 802 912 Q 798 904 785 906 Z " /><path fill="rgb(34,52,55)" stroke="rgb(34,52,55)" stroke-width="1" opacity="1" d="M 913.5 856 L 977.5 856 L 978 859.5 L 959 925 L 977.5 925 L 978 923.5 L 996 860.5 L 998.5 856 L 1062.5 856 L 1063 859.5 L 1007 1053 L 942.5 1053 L 942 1049.5 L 963 976 L 944.5 976 L 944 978.5 L 937 999.5 L 923 1051.5 L 921.5 1053 L 857.5 1053 L 857 1049.5 L 912 857.5 L 913.5 856 Z " /><path fill="rgb(34,52,55)" stroke="rgb(34,52,55)" stroke-width="1" opacity="1" d="M 1108 856 L 1452.5 856 L 1453 859.5 L 1442 894.5 L 1416 988.5 L 1413.5 992 L 1339.5 992 L 1339 989.5 L 1345 968 L 1076 967.5 L 1089 921 L 1358.5 921 L 1359 919.5 L 1364 904.5 L 1095 904 L 1108 856 Z " /><path fill="rgb(34,52,55)" stroke="rgb(34,52,55)" stroke-width="1" opacity="1" d="M 1065 1006 L 1409.5 1006 L 1410 1009.5 Q 1401.8 1031.1 1397 1055 L 1051 1054.5 L 1065 1006 Z " /><path fill="rgb(34,52,55)" stroke="rgb(34,52,55)" stroke-width="1" opacity="1" d="M 1047.5 1070 L 1391.5 1070 L 1392 1071.5 L 1367 1159.5 L 1362.5 1171 L 1094.5 1171 L 1093 1172.5 L 1091 1182 L 1359.5 1182 L 1360 1183.5 L 1348 1225.5 L 1346.5 1227 L 1002.5 1227 L 1002 1225.5 L 1031 1125 L 1300.5 1125 L 1301 1121.5 L 1303 1115 L 1034.5 1115 L 1034 1113.5 L 1046 1071.5 L 1047.5 1070 Z " /><path fill="rgb(34,52,55)" stroke="rgb(34,52,55)" stroke-width="1" opacity="1" d="M 729.5 1088 L 927.5 1088 L 928.5 1089 L 939.5 1089 L 940.5 1090 L 952.5 1091 L 961.5 1094 Q 973.1 1098.4 980 1107.5 L 987 1123.5 L 987 1143.5 L 983 1161.5 L 974 1183.5 Q 966.2 1198.3 953.5 1208 Q 944.6 1215.6 932.5 1220 L 919.5 1224 L 898.5 1226 L 897.5 1227 L 680.5 1227 L 679.5 1226 L 665.5 1225 L 654.5 1222 Q 643.5 1218 637 1209.5 Q 628.1 1198.4 630 1176.5 L 634 1157.5 L 644 1133.5 Q 652.2 1119.2 664.5 1109 Q 677.6 1098.6 695.5 1093 L 709.5 1090 L 728.5 1089 L 729.5 1088 Z M 729 1140 L 721 1143 Q 711 1149 709 1162 L 710 1171 L 717 1175 L 892 1175 L 898 1173 L 905 1166 L 909 1154 L 908 1146 Q 905 1141 900 1140 L 729 1140 Z " /><path fill="rgb(251,253,254)" stroke="rgb(251,253,254)" stroke-width="1" opacity="1" d="M 788.5 856 L 792 856.5 L 788.5 857 L 788.5 856 Z " /><path fill="rgb(251,253,254)" stroke="rgb(251,253,254)" stroke-width="1" opacity="1" d="M 816.5 856 L 820 856.5 L 816.5 857 L 816.5 856 Z " /><path fill="rgb(251,253,254)" stroke="rgb(251,253,254)" stroke-width="1" opacity="1" d="M 774.5 857 L 773.5 859 L 774.5 857 Z " /><path fill="rgb(251,253,254)" stroke="rgb(251,253,254)" stroke-width="1" opacity="1" d="M 1107.5 857 L 1108 859 L 1106 858.5 L 1107.5 857 Z " /><path fill="rgb(251,253,254)" stroke="rgb(251,253,254)" stroke-width="1" opacity="1" d="M 910.5 860 L 912 860.5 L 910 861.5 L 911 863.5 L 910 863.5 L 909 861.5 L 910.5 860 Z " /><path fill="rgb(251,253,254)" stroke="rgb(251,253,254)" stroke-width="1" opacity="1" d="M 756.5 861 L 757.5 863 L 756.5 862 L 754 863.5 L 756.5 861 Z " /><path fill="rgb(251,253,254)" stroke="rgb(251,253,254)" stroke-width="1" opacity="1" d="M 851.5 863 L 850.5 865 L 851.5 863 Z " /><path fill="rgb(251,253,254)" stroke="rgb(251,253,254)" stroke-width="1" opacity="1" d="M 908.5 864 L 907.5 866 L 908.5 864 Z " /><path fill="rgb(251,253,254)" stroke="rgb(251,253,254)" stroke-width="1" opacity="1" d="M 858.5 865 L 859.5 867 L 857 866.5 L 858.5 865 Z " /><path fill="rgb(251,253,254)" stroke="rgb(251,253,254)" stroke-width="1" opacity="1" d="M 994.5 865 L 995 867 L 993 866.5 L 994.5 865 Z " /><path fill="rgb(251,253,254)" stroke="rgb(251,253,254)" stroke-width="1" opacity="1" d="M 742.5 867 L 743.5 869 L 742 868.5 L 741.5 870 L 741 868.5 L 742.5 867 Z " /><path fill="rgb(251,253,254)" stroke="rgb(251,253,254)" stroke-width="1" opacity="1" d="M 1060.5 867 L 1061.5 869 L 1060.5 867 Z " /><path fill="rgb(251,253,254)" stroke="rgb(251,253,254)" stroke-width="1" opacity="1" d="M 1451.5 868 L 1452.5 870 L 1451.5 868 Z " /><path fill="rgb(251,253,254)" stroke="rgb(251,253,254)" stroke-width="1" opacity="1" d="M 861.5 870 L 865 875.5 L 860 871.5 L 861.5 870 Z " /><path fill="rgb(251,253,254)" stroke="rgb(251,253,254)" stroke-width="1" opacity="1" d="M 1451.5 871 L 1451.5 874 L 1449 873.5 Q 1448.3 871.3 1450.5 872 L 1451.5 871 Z " /><path fill="rgb(251,253,254)" stroke="rgb(251,253,254)" stroke-width="1" opacity="1" d="M 735.5 872 L 737 872.5 L 733.5 875 L 735.5 872 Z " /><path fill="rgb(251,253,254)" stroke="rgb(251,253,254)" stroke-width="1" opacity="1" d="M 868.5 873 L 867.5 875 L 868.5 873 Z " /><path fill="rgb(251,253,254)" stroke="rgb(251,253,254)" stroke-width="1" opacity="1" d="M 906.5 874 L 908 874.5 L 905.5 876 L 906.5 874 Z " /><path fill="rgb(251,253,254)" stroke="rgb(251,253,254)" stroke-width="1" opacity="1" d="M 730.5 875 L 731 876.5 L 729 877.5 L 730.5 875 Z " /><path fill="rgb(251,253,254)" stroke="rgb(251,253,254)" stroke-width="1" opacity="1" d="M 868.5 876 L 869.5 878 L 868.5 876 Z " /><path fill="rgb(251,253,254)" stroke="rgb(251,253,254)" stroke-width="1" opacity="1" d="M 989.5 876 L 988.5 878 L 989.5 876 Z " /><path fill="rgb(251,253,254)" stroke="rgb(251,253,254)" stroke-width="1" opacity="1" d="M 867.5 878 L 868.5 880 Q 865.7 880.7 867.5 878 Z " /><path fill="rgb(251,253,254)" stroke="rgb(251,253,254)" stroke-width="1" opacity="1" d="M 1098.5 878 L 1102 879.5 L 1099.5 880 L 1098.5 878 Z " /><path fill="rgb(251,253,254)" stroke="rgb(251,253,254)" stroke-width="1" opacity="1" d="M 990.5 879 L 991 881 L 989 880.5 L 990.5 879 Z " /><path fill="rgb(251,253,254)" stroke="rgb(251,253,254)" stroke-width="1" opacity="1" d="M 725.5 880 L 716.5 890 L 718 887.5 Q 717.3 885.3 719.5 886 L 725.5 880 Z " /><path fill="rgb(251,253,254)" stroke="rgb(251,253,254)" stroke-width="1" opacity="1" d="M 1060.5 883 L 1059.5 885 L 1060.5 883 Z " /><path fill="rgb(251,253,254)" stroke="rgb(251,253,254)" stroke-width="1" opacity="1" d="M 989.5 884 L 988.5 886 L 989.5 884 Z " /><path fill="rgb(251,253,254)" stroke="rgb(251,253,254)" stroke-width="1" opacity="1" d="M 970.5 890 L 971.5 892 Q 972.8 889.7 974 892.5 L 970.5 892 L 969 893.5 L 969.5 895 L 968 893.5 L 968.5 891 L 970 891.5 L 970.5 890 Z " /><path fill="rgb(251,253,254)" stroke="rgb(251,253,254)" stroke-width="1" opacity="1" d="M 713.5 893 L 712.5 895 L 713.5 893 Z " /><path fill="rgb(251,253,254)" stroke="rgb(251,253,254)" stroke-width="1" opacity="1" d="M 872.5 893 L 873.5 895 Q 875.2 891.3 877 894.5 Q 875.3 892.9 873.5 896 L 872 894.5 L 872.5 893 Z " /><path fill="rgb(251,253,254)" stroke="rgb(251,253,254)" stroke-width="1" opacity="1" d="M 898.5 893 L 899.5 895 L 898.5 893 Z " /><path fill="rgb(251,253,254)" stroke="rgb(251,253,254)" stroke-width="1" opacity="1" d="M 1442.5 894 L 1443.5 896 L 1442.5 894 Z " /><path fill="rgb(251,253,254)" stroke="rgb(251,253,254)" stroke-width="1" opacity="1" d="M 707.5 896 L 708.5 898 L 707.5 896 Z " /><path fill="rgb(251,253,254)" stroke="rgb(251,253,254)" stroke-width="1" opacity="1" d="M 1442.5 897 L 1442 898.5 L 1440.5 902 L 1441 900.5 L 1442.5 897 Z " /><path fill="rgb(251,253,254)" stroke="rgb(251,253,254)" stroke-width="1" opacity="1" d="M 1443.5 902 L 1444.5 904 L 1443.5 902 Z " /><path fill="rgb(251,253,254)" stroke="rgb(251,253,254)" stroke-width="1" opacity="1" d="M 982.5 904 L 983.5 906 L 982.5 904 Z " /><path fill="rgb(251,253,254)" stroke="rgb(251,253,254)" stroke-width="1" opacity="1" d="M 784.5 906 L 783.5 908 L 784.5 906 Z " /><path fill="rgb(251,253,254)" stroke="rgb(251,253,254)" stroke-width="1" opacity="1" d="M 797.5 907 Q 800.5 908.5 797.5 910 L 797.5 907 Z " /><path fill="rgb(251,253,254)" stroke="rgb(251,253,254)" stroke-width="1" opacity="1" d="M 874.5 907 L 873.5 909 L 874.5 907 Z " /><path fill="rgb(251,253,254)" stroke="rgb(251,253,254)" stroke-width="1" opacity="1" d="M 982.5 907 L 983 908.5 L 981 909.5 L 982.5 907 Z " /><path fill="rgb(251,253,254)" stroke="rgb(251,253,254)" stroke-width="1" opacity="1" d="M 702.5 908 Q 705.5 909.5 702.5 911 L 702.5 908 Z " /><path fill="rgb(251,253,254)" stroke="rgb(251,253,254)" stroke-width="1" opacity="1" d="M 964.5 908 L 967 909.5 L 965.5 910 L 963 909.5 L 964.5 908 Z " /><path fill="rgb(251,253,254)" stroke="rgb(251,253,254)" stroke-width="1" opacity="1" d="M 775.5 910 L 774.5 912 L 775.5 910 Z " /><path fill="rgb(251,253,254)" stroke="rgb(251,253,254)" stroke-width="1" opacity="1" d="M 963.5 911 L 965.5 914 L 962 912.5 L 963.5 911 Z " /><path fill="rgb(251,253,254)" stroke="rgb(251,253,254)" stroke-width="1" opacity="1" d="M 981.5 912 L 980.5 914 L 981.5 912 Z " /><path fill="rgb(251,253,254)" stroke="rgb(251,253,254)" stroke-width="1" opacity="1" d="M 772.5 913 L 771.5 915 L 772.5 913 Z " /><path fill="rgb(251,253,254)" stroke="rgb(251,253,254)" stroke-width="1" opacity="1" d="M 873.5 913 L 873 914.5 L 872.5 916 L 872 914.5 L 873.5 913 Z " /><path fill="rgb(251,253,254)" stroke="rgb(251,253,254)" stroke-width="1" opacity="1" d="M 894.5 913 L 896 914.5 L 895.5 917 L 894 916.5 L 893.5 918 L 892.5 916 Q 891.2 918.3 890 915.5 L 893.5 916 L 895 914.5 L 894.5 913 Z " /><path fill="rgb(251,253,254)" stroke="rgb(251,253,254)" stroke-width="1" opacity="1" d="M 772.5 916 L 773.5 918 L 772.5 916 Z " /><path fill="rgb(251,253,254)" stroke="rgb(251,253,254)" stroke-width="1" opacity="1" d="M 1436.5 918 L 1435.5 920 L 1436.5 918 Z " /><path fill="rgb(251,253,254)" stroke="rgb(251,253,254)" stroke-width="1" opacity="1" d="M 1355.5 919 L 1359 920.5 L 1090.5 921 L 1090.5 920 L 1354.5 920 L 1355.5 919 Z " /><path fill="rgb(251,253,254)" stroke="rgb(251,253,254)" stroke-width="1" opacity="1" d="M 871.5 921 L 872 923.5 L 871 923.5 L 871.5 921 Z " /><path fill="rgb(251,253,254)" stroke="rgb(251,253,254)" stroke-width="1" opacity="1" d="M 1046.5 921 L 1047.5 923 L 1046.5 921 Z " /><path fill="rgb(251,253,254)" stroke="rgb(251,253,254)" stroke-width="1" opacity="1" d="M 1434.5 922 L 1435.5 924 L 1434.5 922 Z " /><path fill="rgb(251,253,254)" stroke="rgb(251,253,254)" stroke-width="1" opacity="1" d="M 800.5 923 L 801.5 925 L 800.5 923 Z " /><path fill="rgb(251,253,254)" stroke="rgb(251,253,254)" stroke-width="1" opacity="1" d="M 959.5 923 L 960.5 924 L 978 924.5 L 959 925 L 959.5 923 Z " /><path fill="rgb(251,253,254)" stroke="rgb(251,253,254)" stroke-width="1" opacity="1" d="M 890.5 926 L 893 926.5 Q 890.9 929.8 890.5 926 Z " /><path fill="rgb(251,253,254)" stroke="rgb(251,253,254)" stroke-width="1" opacity="1" d="M 1433.5 926 L 1434.5 928 L 1433.5 926 Z " /><path fill="rgb(251,253,254)" stroke="rgb(251,253,254)" stroke-width="1" opacity="1" d="M 694.5 928 L 695.5 930 Q 692.7 930.7 694.5 928 Z " /><path fill="rgb(251,253,254)" stroke="rgb(251,253,254)" stroke-width="1" opacity="1" d="M 1042.5 929 Q 1045.5 930.5 1042.5 932 L 1042.5 929 Z " /><path fill="rgb(251,253,254)" stroke="rgb(251,253,254)" stroke-width="1" opacity="1" d="M 1081.5 931 L 1084 932.5 L 1082 933.5 L 1082.5 932 L 1081.5 931 Z " /><path fill="rgb(251,253,254)" stroke="rgb(251,253,254)" stroke-width="1" opacity="1" d="M 796.5 932 L 799 933.5 L 797.5 933 L 796.5 932 Z " /><path fill="rgb(251,253,254)" stroke="rgb(251,253,254)" stroke-width="1" opacity="1" d="M 1046.5 932 L 1046 933.5 L 1045.5 935 L 1045 933.5 L 1046.5 932 Z " /><path fill="rgb(251,253,254)" stroke="rgb(251,253,254)" stroke-width="1" opacity="1" d="M 890.5 933 L 889.5 935 L 890.5 933 Z " /><path fill="rgb(251,253,254)" stroke="rgb(251,253,254)" stroke-width="1" opacity="1" d="M 1431.5 933 L 1432.5 935 Q 1429.7 935.7 1431.5 933 Z " /><path fill="rgb(251,253,254)" stroke="rgb(251,253,254)" stroke-width="1" opacity="1" d="M 764.5 934 L 765 936.5 L 764.5 939 L 763 937.5 L 764.5 934 Z " /><path fill="rgb(251,253,254)" stroke="rgb(251,253,254)" stroke-width="1" opacity="1" d="M 691.5 937 L 691.5 939 L 693 939.5 L 691.5 940 Q 688.5 938.5 691.5 937 Z " /><path fill="rgb(251,253,254)" stroke="rgb(251,253,254)" stroke-width="1" opacity="1" d="M 868.5 937 L 867.5 939 L 868.5 937 Z " /><path fill="rgb(251,253,254)" stroke="rgb(251,253,254)" stroke-width="1" opacity="1" d="M 1081.5 941 L 1082.5 943 L 1081.5 941 Z " /><path fill="rgb(251,253,254)" stroke="rgb(251,253,254)" stroke-width="1" opacity="1" d="M 761.5 944 L 764 944.5 Q 761.9 947.8 761.5 944 Z " /><path fill="rgb(251,253,254)" stroke="rgb(251,253,254)" stroke-width="1" opacity="1" d="M 1080.5 944 L 1083 945.5 L 1081.5 945 L 1080.5 944 Z " /><path fill="rgb(251,253,254)" stroke="rgb(251,253,254)" stroke-width="1" opacity="1" d="M 865.5 945 Q 868.5 946.5 865.5 948 L 865.5 945 Z " /><path fill="rgb(251,253,254)" stroke="rgb(251,253,254)" stroke-width="1" opacity="1" d="M 1038.5 946 L 1037.5 948 L 1038.5 946 Z " /><path fill="rgb(251,253,254)" stroke="rgb(251,253,254)" stroke-width="1" opacity="1" d="M 881.5 947 L 884 948.5 L 882 949.5 L 882.5 948 L 881.5 947 Z " /><path fill="rgb(251,253,254)" stroke="rgb(251,253,254)" stroke-width="1" opacity="1" d="M 1426.5 953 L 1425.5 955 L 1426.5 953 Z " /><path fill="rgb(251,253,254)" stroke="rgb(251,253,254)" stroke-width="1" opacity="1" d="M 1079.5 954 L 1080 956 L 1078 955.5 L 1079.5 954 Z " /><path fill="rgb(251,253,254)" stroke="rgb(251,253,254)" stroke-width="1" opacity="1" d="M 685.5 957 L 686.5 959 L 685.5 957 Z " /><path fill="rgb(251,253,254)" stroke="rgb(251,253,254)" stroke-width="1" opacity="1" d="M 790.5 957 L 792 960 L 788.5 962 L 787.5 960 Q 788.8 962.3 790 959.5 Q 787.8 958.3 790.5 957 Z " /><path fill="rgb(251,253,254)" stroke="rgb(251,253,254)" stroke-width="1" opacity="1" d="M 881.5 957 L 882.5 959 L 881.5 957 Z " /><path fill="rgb(251,253,254)" stroke="rgb(251,253,254)" stroke-width="1" opacity="1" d="M 1034.5 957 L 1037 957.5 L 1034.5 958 L 1034.5 957 Z " /><path fill="rgb(251,253,254)" stroke="rgb(251,253,254)" stroke-width="1" opacity="1" d="M 756 960 L 758 960.5 L 756 961.5 L 756 960 Z " /><path fill="rgb(251,253,254)" stroke="rgb(251,253,254)" stroke-width="1" opacity="1" d="M 881.5 960 L 882.5 962 L 880.5 963 L 881 961.5 L 881.5 960 Z " /><path fill="rgb(251,253,254)" stroke="rgb(251,253,254)" stroke-width="1" opacity="1" d="M 682.5 961 L 683.5 963 L 682.5 961 Z " /><path fill="rgb(251,253,254)" stroke="rgb(251,253,254)" stroke-width="1" opacity="1" d="M 1033 961 L 1035 961.5 L 1034.5 964 L 1033 961 Z " /><path fill="rgb(251,253,254)" stroke="rgb(251,253,254)" stroke-width="1" opacity="1" d="M 786.5 962 L 788 964.5 L 787 964.5 L 786.5 962 Z " /><path fill="rgb(251,253,254)" stroke="rgb(251,253,254)" stroke-width="1" opacity="1" d="M 1076.5 962 L 1078 962.5 L 1075.5 964 L 1076.5 962 Z " /><path fill="rgb(251,253,254)" stroke="rgb(251,253,254)" stroke-width="1" opacity="1" d="M 755.5 963 L 756.5 965 L 755.5 963 Z " /><path fill="rgb(251,253,254)" stroke="rgb(251,253,254)" stroke-width="1" opacity="1" d="M 860.5 963 L 864 966.5 L 862.5 968 Q 860.8 964.9 859 966.5 Q 862.1 964.8 860.5 963 Z " /><path fill="rgb(251,253,254)" stroke="rgb(251,253,254)" stroke-width="1" opacity="1" d="M 1038.5 965 L 1039.5 967 L 1038.5 965 Z " /><path fill="rgb(251,253,254)" stroke="rgb(251,253,254)" stroke-width="1" opacity="1" d="M 681.5 966 L 683.5 966 Q 685.8 965.3 685 967.5 L 682 968.5 L 683.5 971 L 681 968.5 L 681.5 966 Z " /><path fill="rgb(251,253,254)" stroke="rgb(251,253,254)" stroke-width="1" opacity="1" d="M 785.5 967 L 787 969.5 L 785 968.5 L 785.5 967 Z " /><path fill="rgb(251,253,254)" stroke="rgb(251,253,254)" stroke-width="1" opacity="1" d="M 879.5 970 L 880 972 L 878 971.5 L 879.5 970 Z " /><path fill="rgb(251,253,254)" stroke="rgb(251,253,254)" stroke-width="1" opacity="1" d="M 1420.5 971 L 1421.5 973 L 1420.5 971 Z " /><path fill="rgb(251,253,254)" stroke="rgb(251,253,254)" stroke-width="1" opacity="1" d="M 755.5 972 L 756.5 974 L 755.5 972 Z " /><path fill="rgb(251,253,254)" stroke="rgb(251,253,254)" stroke-width="1" opacity="1" d="M 752.5 974 L 753.5 976 L 752.5 974 Z " /><path fill="rgb(251,253,254)" stroke="rgb(251,253,254)" stroke-width="1" opacity="1" d="M 944.5 976 L 963 976.5 L 944.5 977 L 944.5 976 Z " /><path fill="rgb(251,253,254)" stroke="rgb(251,253,254)" stroke-width="1" opacity="1" d="M 876.5 978 L 878 978.5 L 875.5 980 L 876.5 978 Z " /><path fill="rgb(251,253,254)" stroke="rgb(251,253,254)" stroke-width="1" opacity="1" d="M 1421.5 979 L 1422.5 981 L 1421.5 979 Z " /><path fill="rgb(251,253,254)" stroke="rgb(251,253,254)" stroke-width="1" opacity="1" d="M 1029.5 984 L 1031.5 987 L 1028.5 986 L 1026 987.5 L 1026.5 985 Q 1028 987.5 1029.5 984 Z " /><path fill="rgb(251,253,254)" stroke="rgb(251,253,254)" stroke-width="1" opacity="1" d="M 955.5 985 Q 958.5 986.5 955.5 988 L 955.5 985 Z " /><path fill="rgb(251,253,254)" stroke="rgb(251,253,254)" stroke-width="1" opacity="1" d="M 942.5 988 L 941.5 990 L 940 989.5 L 942.5 988 Z " /><path fill="rgb(251,253,254)" stroke="rgb(251,253,254)" stroke-width="1" opacity="1" d="M 1025 989 L 1027 989.5 L 1025 990.5 L 1025 989 Z " /><path fill="rgb(251,253,254)" stroke="rgb(251,253,254)" stroke-width="1" opacity="1" d="M 851.5 990 L 852 991.5 L 850 992.5 L 851.5 990 Z " /><path fill="rgb(251,253,254)" stroke="rgb(251,253,254)" stroke-width="1" opacity="1" d="M 955.5 990 L 957 992.5 L 955 991.5 L 955.5 990 Z " /><path fill="rgb(251,253,254)" stroke="rgb(251,253,254)" stroke-width="1" opacity="1" d="M 751.5 991 L 750.5 993 L 751.5 991 Z " /><path fill="rgb(251,253,254)" stroke="rgb(251,253,254)" stroke-width="1" opacity="1" d="M 677.5 993 L 679 996.5 L 678 996.5 L 677.5 993 Z " /><path fill="rgb(251,253,254)" stroke="rgb(251,253,254)" stroke-width="1" opacity="1" d="M 770 995 L 772 995.5 L 770 996.5 L 770 995 Z " /><path fill="rgb(251,253,254)" stroke="rgb(251,253,254)" stroke-width="1" opacity="1" d="M 778.5 995 L 776.5 998 L 778.5 995 Z " /><path fill="rgb(251,253,254)" stroke="rgb(251,253,254)" stroke-width="1" opacity="1" d="M 750.5 996 L 752.5 1001 L 750 998.5 L 750.5 996 Z " /><path fill="rgb(251,253,254)" stroke="rgb(251,253,254)" stroke-width="1" opacity="1" d="M 774.5 998 L 773.5 1000 L 774.5 998 Z " /><path fill="rgb(251,253,254)" stroke="rgb(251,253,254)" stroke-width="1" opacity="1" d="M 955 998 Q 958 997 957 1000 Q 954 1001 955 998 Z " /><path fill="rgb(251,253,254)" stroke="rgb(251,253,254)" stroke-width="1" opacity="1" d="M 770.5 999 L 771.5 1001 L 770.5 999 Z " /><path fill="rgb(251,253,254)" stroke="rgb(251,253,254)" stroke-width="1" opacity="1" d="M 871.5 999 L 870.5 1001 L 871.5 999 Z " /><path fill="rgb(251,253,254)" stroke="rgb(251,253,254)" stroke-width="1" opacity="1" d="M 758.5 1001 L 759 1003 L 757 1002.5 L 758.5 1001 Z " /><path fill="rgb(251,253,254)" stroke="rgb(251,253,254)" stroke-width="1" opacity="1" d="M 846.5 1001 L 847 1002.5 L 844 1004.5 L 846.5 1001 Z " /><path fill="rgb(251,253,254)" stroke="rgb(251,253,254)" stroke-width="1" opacity="1" d="M 865.5 1003 L 868 1003.5 L 865 1005.5 L 865.5 1003 Z " /><path fill="rgb(251,253,254)" stroke="rgb(251,253,254)" stroke-width="1" opacity="1" d="M 936.5 1003 L 938 1005.5 L 936 1004.5 L 936.5 1003 Z " /><path fill="rgb(251,253,254)" stroke="rgb(251,253,254)" stroke-width="1" opacity="1" d="M 1065.5 1003 L 1068 1003.5 Q 1065.9 1006.8 1065.5 1003 Z " /><path fill="rgb(251,253,254)" stroke="rgb(251,253,254)" stroke-width="1" opacity="1" d="M 1411.5 1005 L 1411 1006.5 L 1410.5 1008 L 1410 1006.5 L 1411.5 1005 Z " /><path fill="rgb(251,253,254)" stroke="rgb(251,253,254)" stroke-width="1" opacity="1" d="M 843.5 1006 L 844 1007.5 L 843.5 1010 L 841 1009.5 L 843.5 1006 Z " /><path fill="rgb(251,253,254)" stroke="rgb(251,253,254)" stroke-width="1" opacity="1" d="M 676.5 1007 L 675.5 1009 L 676.5 1007 Z " /><path fill="rgb(251,253,254)" stroke="rgb(251,253,254)" stroke-width="1" opacity="1" d="M 1020.5 1010 L 1019.5 1012 L 1020.5 1010 Z " /><path fill="rgb(251,253,254)" stroke="rgb(251,253,254)" stroke-width="1" opacity="1" d="M 840.5 1011 L 839.5 1013 L 840.5 1011 Z " /><path fill="rgb(251,253,254)" stroke="rgb(251,253,254)" stroke-width="1" opacity="1" d="M 866.5 1012 L 867.5 1014 L 866.5 1012 Z " /><path fill="rgb(251,253,254)" stroke="rgb(251,253,254)" stroke-width="1" opacity="1" d="M 838.5 1014 L 838 1015.5 Q 838.8 1017.8 836.5 1017 L 838.5 1014 Z " /><path fill="rgb(251,253,254)" stroke="rgb(251,253,254)" stroke-width="1" opacity="1" d="M 945.5 1019 L 944.5 1021 L 945.5 1019 Z " /><path fill="rgb(251,253,254)" stroke="rgb(251,253,254)" stroke-width="1" opacity="1" d="M 833.5 1020 L 827 1027.5 L 826 1029.5 L 826.5 1031 L 824 1029.5 L 833.5 1020 Z " /><path fill="rgb(251,253,254)" stroke="rgb(251,253,254)" stroke-width="1" opacity="1" d="M 933.5 1024 L 932.5 1026 L 933.5 1024 Z " /><path fill="rgb(251,253,254)" stroke="rgb(251,253,254)" stroke-width="1" opacity="1" d="M 947.5 1025 L 947.5 1027 L 949 1027.5 L 947.5 1028 Q 944.5 1026.5 947.5 1025 Z " /><path fill="rgb(251,253,254)" stroke="rgb(251,253,254)" stroke-width="1" opacity="1" d="M 828.5 1028 L 831 1028.5 L 828.5 1029 L 828.5 1028 Z " /><path fill="rgb(251,253,254)" stroke="rgb(251,253,254)" stroke-width="1" opacity="1" d="M 681.5 1030 L 682.5 1032 L 681.5 1030 Z " /><path fill="rgb(251,253,254)" stroke="rgb(251,253,254)" stroke-width="1" opacity="1" d="M 821.5 1031 L 819.5 1034 L 821.5 1031 Z " /><path fill="rgb(251,253,254)" stroke="rgb(251,253,254)" stroke-width="1" opacity="1" d="M 684.5 1032 L 687 1032.5 L 683 1035.5 Q 686.1 1033.8 684.5 1032 Z " /><path fill="rgb(251,253,254)" stroke="rgb(251,253,254)" stroke-width="1" opacity="1" d="M 1402.5 1034 L 1403.5 1036 L 1402.5 1034 Z " /><path fill="rgb(251,253,254)" stroke="rgb(251,253,254)" stroke-width="1" opacity="1" d="M 1054.5 1037 L 1056 1040 L 1053 1038.5 L 1054.5 1037 Z " /><path fill="rgb(251,253,254)" stroke="rgb(251,253,254)" stroke-width="1" opacity="1" d="M 1405.5 1037 L 1403.5 1040 L 1405.5 1037 Z " /><path fill="rgb(251,253,254)" stroke="rgb(251,253,254)" stroke-width="1" opacity="1" d="M 693.5 1039 L 695 1041.5 L 694 1041.5 L 693.5 1039 Z " /><path fill="rgb(251,253,254)" stroke="rgb(251,253,254)" stroke-width="1" opacity="1" d="M 925.5 1041 L 926.5 1043 L 925.5 1041 Z " /><path fill="rgb(251,253,254)" stroke="rgb(251,253,254)" stroke-width="1" opacity="1" d="M 699.5 1043 L 704 1046.5 L 701.5 1045 L 699.5 1043 Z " /><path fill="rgb(251,253,254)" stroke="rgb(251,253,254)" stroke-width="1" opacity="1" d="M 924.5 1045 L 927 1045.5 L 924.5 1046 L 924.5 1045 Z " /><path fill="rgb(251,253,254)" stroke="rgb(251,253,254)" stroke-width="1" opacity="1" d="M 941.5 1045 L 942.5 1047 L 941.5 1045 Z " /><path fill="rgb(251,253,254)" stroke="rgb(251,253,254)" stroke-width="1" opacity="1" d="M 1008 1048 L 1011 1049.5 Q 1009.5 1052.5 1008 1049.5 L 1008 1048 Z " /><path fill="rgb(251,253,254)" stroke="rgb(251,253,254)" stroke-width="1" opacity="1" d="M 1049.5 1048 L 1048.5 1050 L 1049.5 1048 Z " /><path fill="rgb(251,253,254)" stroke="rgb(251,253,254)" stroke-width="1" opacity="1" d="M 776.5 1050 L 775.5 1054 L 772 1052.5 Q 774.2 1054.2 776.5 1050 Z " /><path fill="rgb(251,253,254)" stroke="rgb(251,253,254)" stroke-width="1" opacity="1" d="M 936.5 1050 L 937.5 1052 L 936.5 1050 Z " /><path fill="rgb(251,253,254)" stroke="rgb(251,253,254)" stroke-width="1" opacity="1" d="M 941.5 1050 L 942 1052.5 L 941 1052.5 L 941.5 1050 Z " /><path fill="rgb(251,253,254)" stroke="rgb(251,253,254)" stroke-width="1" opacity="1" d="M 713.5 1051 L 712.5 1053 L 713.5 1051 Z " /><path fill="rgb(251,253,254)" stroke="rgb(251,253,254)" stroke-width="1" opacity="1" d="M 725.5 1051 L 727 1051.5 L 724.5 1053 L 725.5 1051 Z " /><path fill="rgb(251,253,254)" stroke="rgb(251,253,254)" stroke-width="1" opacity="1" d="M 768.5 1051 L 771 1052.5 L 769.5 1052 L 768.5 1051 Z " /><path fill="rgb(251,253,254)" stroke="rgb(251,253,254)" stroke-width="1" opacity="1" d="M 923.5 1051 L 922.5 1053 L 923.5 1051 Z " /><path fill="rgb(251,253,254)" stroke="rgb(251,253,254)" stroke-width="1" opacity="1" d="M 1397.5 1051 Q 1399.8 1050.3 1399 1052.5 L 1399.5 1054 L 1397.5 1051 Z " /><path fill="rgb(251,253,254)" stroke="rgb(251,253,254)" stroke-width="1" opacity="1" d="M 736.5 1052 L 744 1052.5 L 740.5 1054 L 736.5 1053 L 736.5 1052 Z " /><path fill="rgb(251,253,254)" stroke="rgb(251,253,254)" stroke-width="1" opacity="1" d="M 752.5 1052 L 760 1052.5 L 752.5 1053 L 752.5 1052 Z " /><path fill="rgb(251,253,254)" stroke="rgb(251,253,254)" stroke-width="1" opacity="1" d="M 939.5 1052 L 938.5 1054 L 939.5 1052 Z " /><path fill="rgb(251,253,254)" stroke="rgb(251,253,254)" stroke-width="1" opacity="1" d="M 722.5 1053 L 723 1055 L 721 1054.5 L 722.5 1053 Z " /><path fill="rgb(251,253,254)" stroke="rgb(251,253,254)" stroke-width="1" opacity="1" d="M 747.5 1053 L 747.5 1056 Q 744.5 1054.5 747.5 1053 Z " /><path fill="rgb(251,253,254)" stroke="rgb(251,253,254)" stroke-width="1" opacity="1" d="M 1003.5 1054 L 1004.5 1056 L 1003.5 1054 Z " /><path fill="rgb(251,253,254)" stroke="rgb(251,253,254)" stroke-width="1" opacity="1" d="M 1042.5 1064 L 1043.5 1066 L 1042.5 1064 Z " /><path fill="rgb(251,253,254)" stroke="rgb(251,253,254)" stroke-width="1" opacity="1" d="M 1386.5 1064 L 1389 1064.5 Q 1386.9 1067.8 1386.5 1064 Z " /><path fill="rgb(251,253,254)" stroke="rgb(251,253,254)" stroke-width="1" opacity="1" d="M 1391.5 1064 L 1390.5 1066 L 1391.5 1064 Z " /><path fill="rgb(251,253,254)" stroke="rgb(251,253,254)" stroke-width="1" opacity="1" d="M 1040.5 1065 L 1041.5 1067 L 1040.5 1065 Z " /><path fill="rgb(251,253,254)" stroke="rgb(251,253,254)" stroke-width="1" opacity="1" d="M 1045.5 1069 L 1047.5 1069 L 1392 1069.5 L 1047.5 1070 L 1046.5 1071 L 1045.5 1069 Z " /><path fill="rgb(251,253,254)" stroke="rgb(251,253,254)" stroke-width="1" opacity="1" d="M 1043.5 1070 L 1044.5 1072 L 1043.5 1070 Z " /><path fill="rgb(251,253,254)" stroke="rgb(251,253,254)" stroke-width="1" opacity="1" d="M 1044.5 1076 L 1043.5 1078 L 1044.5 1076 Z " /><path fill="rgb(251,253,254)" stroke="rgb(251,253,254)" stroke-width="1" opacity="1" d="M 1390.5 1083 L 1391.5 1085 L 1390.5 1083 Z " /><path fill="rgb(251,253,254)" stroke="rgb(251,253,254)" stroke-width="1" opacity="1" d="M 723.5 1088 L 729 1088.5 L 723.5 1089 L 723.5 1088 Z " /><path fill="rgb(251,253,254)" stroke="rgb(251,253,254)" stroke-width="1" opacity="1" d="M 928.5 1088 L 932 1088.5 L 928.5 1089 L 928.5 1088 Z " /><path fill="rgb(251,253,254)" stroke="rgb(251,253,254)" stroke-width="1" opacity="1" d="M 1389.5 1088 L 1390.5 1090 L 1389.5 1088 Z " /><path fill="rgb(251,253,254)" stroke="rgb(251,253,254)" stroke-width="1" opacity="1" d="M 707.5 1089 L 708.5 1091 Q 705.7 1091.7 707.5 1089 Z " /><path fill="rgb(251,253,254)" stroke="rgb(251,253,254)" stroke-width="1" opacity="1" d="M 952.5 1089 L 954 1091.5 L 953 1091.5 L 952.5 1089 Z " /><path fill="rgb(251,253,254)" stroke="rgb(251,253,254)" stroke-width="1" opacity="1" d="M 679.5 1097 L 682 1098.5 L 680.5 1098 L 679.5 1097 Z " /><path fill="rgb(251,253,254)" stroke="rgb(251,253,254)" stroke-width="1" opacity="1" d="M 1038.5 1097 L 1039 1099 L 1037 1098.5 L 1038.5 1097 Z " /><path fill="rgb(251,253,254)" stroke="rgb(251,253,254)" stroke-width="1" opacity="1" d="M 1384.5 1097 L 1385.5 1099 L 1384.5 1097 Z " /><path fill="rgb(251,253,254)" stroke="rgb(251,253,254)" stroke-width="1" opacity="1" d="M 974.5 1100 L 979 1105.5 L 974 1101.5 L 974.5 1100 Z " /><path fill="rgb(251,253,254)" stroke="rgb(251,253,254)" stroke-width="1" opacity="1" d="M 1037.5 1100 L 1037.5 1103 Q 1036 1100.5 1034.5 1104 L 1032 1101.5 L 1035.5 1102 L 1037.5 1100 Z " /><path fill="rgb(251,253,254)" stroke="rgb(251,253,254)" stroke-width="1" opacity="1" d="M 673.5 1101 L 674.5 1103 L 673.5 1101 Z " /><path fill="rgb(251,253,254)" stroke="rgb(251,253,254)" stroke-width="1" opacity="1" d="M 666.5 1107 L 665.5 1109 L 666.5 1107 Z " /><path fill="rgb(251,253,254)" stroke="rgb(251,253,254)" stroke-width="1" opacity="1" d="M 1381.5 1107 L 1384 1108.5 L 1381 1109 L 1381.5 1107 Z " /><path fill="rgb(251,253,254)" stroke="rgb(251,253,254)" stroke-width="1" opacity="1" d="M 662.5 1110 L 654.5 1119 L 662.5 1110 Z " /><path fill="rgb(251,253,254)" stroke="rgb(251,253,254)" stroke-width="1" opacity="1" d="M 1034.5 1112 L 1033.5 1114 L 1034.5 1112 Z " /><path fill="rgb(251,253,254)" stroke="rgb(251,253,254)" stroke-width="1" opacity="1" d="M 990.5 1114 L 989.5 1116 L 990.5 1114 Z " /><path fill="rgb(251,253,254)" stroke="rgb(251,253,254)" stroke-width="1" opacity="1" d="M 1381.5 1114 L 1382.5 1116 L 1381.5 1114 Z " /><path fill="rgb(251,253,254)" stroke="rgb(251,253,254)" stroke-width="1" opacity="1" d="M 654.5 1115 L 652.5 1118 L 654.5 1115 Z " /><path fill="rgb(251,253,254)" stroke="rgb(251,253,254)" stroke-width="1" opacity="1" d="M 1033.5 1115 L 1302.5 1115 L 1303 1117.5 L 1302 1117.5 Q 1302.9 1114.5 1298.5 1116 L 1296.5 1116 L 1039.5 1116 L 1038.5 1117 L 1033.5 1116 L 1033.5 1115 Z " /><path fill="rgb(251,253,254)" stroke="rgb(251,253,254)" stroke-width="1" opacity="1" d="M 1379.5 1116 L 1380.5 1118 L 1379.5 1116 Z " /><path fill="rgb(251,253,254)" stroke="rgb(251,253,254)" stroke-width="1" opacity="1" d="M 1300.5 1119 L 1301.5 1121 L 1300.5 1119 Z " /><path fill="rgb(251,253,254)" stroke="rgb(251,253,254)" stroke-width="1" opacity="1" d="M 649.5 1121 L 651.5 1122 L 653 1121.5 L 650.5 1123 L 648 1122.5 L 649.5 1121 Z " /><path fill="rgb(251,253,254)" stroke="rgb(251,253,254)" stroke-width="1" opacity="1" d="M 1029.5 1122 L 1031 1125.5 L 1030.5 1127 L 1029 1124.5 L 1029.5 1122 Z " /><path fill="rgb(251,253,254)" stroke="rgb(251,253,254)" stroke-width="1" opacity="1" d="M 1376.5 1125 L 1377.5 1127 L 1376.5 1125 Z " /><path fill="rgb(251,253,254)" stroke="rgb(251,253,254)" stroke-width="1" opacity="1" d="M 645.5 1128 L 646.5 1130 L 645.5 1128 Z " /><path fill="rgb(251,253,254)" stroke="rgb(251,253,254)" stroke-width="1" opacity="1" d="M 987.5 1129 L 988 1135.5 L 987 1135.5 L 987.5 1129 Z " /><path fill="rgb(251,253,254)" stroke="rgb(251,253,254)" stroke-width="1" opacity="1" d="M 643.5 1131 L 646 1131.5 Q 643.9 1134.8 643.5 1131 Z " /><path fill="rgb(251,253,254)" stroke="rgb(251,253,254)" stroke-width="1" opacity="1" d="M 635.5 1138 L 635.5 1141 Q 632.5 1139.5 635.5 1138 Z " /><path fill="rgb(251,253,254)" stroke="rgb(251,253,254)" stroke-width="1" opacity="1" d="M 639.5 1139 L 640.5 1141 L 639.5 1139 Z " /><path fill="rgb(251,253,254)" stroke="rgb(251,253,254)" stroke-width="1" opacity="1" d="M 990.5 1140 L 991.5 1142 L 990.5 1140 Z " /><path fill="rgb(251,253,254)" stroke="rgb(251,253,254)" stroke-width="1" opacity="1" d="M 1026.5 1140 L 1025.5 1142 L 1026.5 1140 Z " /><path fill="rgb(251,253,254)" stroke="rgb(251,253,254)" stroke-width="1" opacity="1" d="M 1373.5 1140 L 1374.5 1142 L 1373.5 1141 L 1371 1142.5 L 1373.5 1140 Z " /><path fill="rgb(251,253,254)" stroke="rgb(251,253,254)" stroke-width="1" opacity="1" d="M 724.5 1141 L 726 1141.5 L 722.5 1144 L 722 1142 L 724.5 1141 Z " /><path fill="rgb(251,253,254)" stroke="rgb(251,253,254)" stroke-width="1" opacity="1" d="M 734.5 1141 L 735.5 1143 L 733 1142.5 L 734.5 1141 Z " /><path fill="rgb(251,253,254)" stroke="rgb(251,253,254)" stroke-width="1" opacity="1" d="M 638.5 1142 L 637.5 1144 L 638.5 1142 Z " /><path fill="rgb(251,253,254)" stroke="rgb(251,253,254)" stroke-width="1" opacity="1" d="M 904.5 1142 L 905.5 1144 L 904.5 1142 Z " /><path fill="rgb(251,253,254)" stroke="rgb(251,253,254)" stroke-width="1" opacity="1" d="M 908.5 1152 L 909 1154 L 907 1153.5 L 908.5 1152 Z " /><path fill="rgb(251,253,254)" stroke="rgb(251,253,254)" stroke-width="1" opacity="1" d="M 985.5 1153 L 984.5 1155 L 985.5 1153 Z " /><path fill="rgb(251,253,254)" stroke="rgb(251,253,254)" stroke-width="1" opacity="1" d="M 1022.5 1154 L 1021 1156.5 L 1022 1157.5 L 1021.5 1159 L 1020 1156.5 L 1022.5 1154 Z " /><path fill="rgb(251,253,254)" stroke="rgb(251,253,254)" stroke-width="1" opacity="1" d="M 1372.5 1155 L 1371.5 1157 L 1372.5 1155 Z " /><path fill="rgb(251,253,254)" stroke="rgb(251,253,254)" stroke-width="1" opacity="1" d="M 904.5 1165 L 903.5 1167 L 902 1166.5 L 904.5 1165 Z " /><path fill="rgb(251,253,254)" stroke="rgb(251,253,254)" stroke-width="1" opacity="1" d="M 1016.5 1165 L 1017.5 1167 L 1016.5 1165 Z " /><path fill="rgb(251,253,254)" stroke="rgb(251,253,254)" stroke-width="1" opacity="1" d="M 629.5 1168 L 632 1169.5 L 630.5 1170 L 629.5 1168 Z " /><path fill="rgb(251,253,254)" stroke="rgb(251,253,254)" stroke-width="1" opacity="1" d="M 894.5 1168 L 895.5 1170 L 893.5 1171 L 894 1169.5 L 894.5 1168 Z " /><path fill="rgb(251,253,254)" stroke="rgb(251,253,254)" stroke-width="1" opacity="1" d="M 1363.5 1170 L 1364 1173 L 1366 1173.5 L 1362.5 1175 L 1362.5 1174 L 1364 1173.5 L 1361.5 1172 L 1359.5 1172 L 1094.5 1172 L 1094 1173.5 L 1093 1173.5 L 1094.5 1171 L 1362.5 1171 L 1363.5 1170 Z " /><path fill="rgb(251,253,254)" stroke="rgb(251,253,254)" stroke-width="1" opacity="1" d="M 895.5 1171 L 897.5 1171 L 899 1171.5 L 896.5 1173 L 895.5 1171 Z " /><path fill="rgb(251,253,254)" stroke="rgb(251,253,254)" stroke-width="1" opacity="1" d="M 630.5 1172 L 631 1174.5 L 630.5 1176 L 629 1173.5 L 630.5 1172 Z " /><path fill="rgb(251,253,254)" stroke="rgb(251,253,254)" stroke-width="1" opacity="1" d="M 890.5 1172 L 892 1174.5 L 891 1174.5 L 890.5 1172 Z " /><path fill="rgb(251,253,254)" stroke="rgb(251,253,254)" stroke-width="1" opacity="1" d="M 717.5 1173 L 718.5 1175 L 717.5 1173 Z " /><path fill="rgb(251,253,254)" stroke="rgb(251,253,254)" stroke-width="1" opacity="1" d="M 978.5 1173 L 979 1174.5 L 976.5 1178 L 977 1176.5 L 978.5 1173 Z " /><path fill="rgb(251,253,254)" stroke="rgb(251,253,254)" stroke-width="1" opacity="1" d="M 1094.5 1177 L 1095.5 1179 L 1094.5 1177 Z " /><path fill="rgb(251,253,254)" stroke="rgb(251,253,254)" stroke-width="1" opacity="1" d="M 628.5 1179 L 629.5 1181 L 628.5 1179 Z " /><path fill="rgb(251,253,254)" stroke="rgb(251,253,254)" stroke-width="1" opacity="1" d="M 976.5 1179 L 975.5 1181 L 976.5 1179 Z " /><path fill="rgb(251,253,254)" stroke="rgb(251,253,254)" stroke-width="1" opacity="1" d="M 1091.5 1179 L 1094 1179.5 L 1091.5 1180 L 1091.5 1179 Z " /><path fill="rgb(251,253,254)" stroke="rgb(251,253,254)" stroke-width="1" opacity="1" d="M 975.5 1182 L 975.5 1185 Q 973.3 1185.8 974 1183.5 L 975.5 1182 Z " /><path fill="rgb(251,253,254)" stroke="rgb(251,253,254)" stroke-width="1" opacity="1" d="M 970.5 1189 L 969.5 1191 L 970.5 1189 Z " /><path fill="rgb(251,253,254)" stroke="rgb(251,253,254)" stroke-width="1" opacity="1" d="M 1358.5 1193 L 1359.5 1195 L 1358.5 1193 Z " /><path fill="rgb(251,253,254)" stroke="rgb(251,253,254)" stroke-width="1" opacity="1" d="M 1009.5 1195 L 1010.5 1197 L 1009.5 1195 Z " /><path fill="rgb(251,253,254)" stroke="rgb(251,253,254)" stroke-width="1" opacity="1" d="M 964.5 1197 L 962 1200.5 Q 962.8 1202.8 960.5 1202 L 955 1206.5 L 964.5 1197 Z " /><path fill="rgb(251,253,254)" stroke="rgb(251,253,254)" stroke-width="1" opacity="1" d="M 1354.5 1201 L 1356 1203.5 L 1353 1205.5 Q 1356.5 1204 1354 1202.5 L 1354.5 1201 Z " /><path fill="rgb(251,253,254)" stroke="rgb(251,253,254)" stroke-width="1" opacity="1" d="M 1004.5 1203 L 1003.5 1205 L 1004.5 1203 Z " /><path fill="rgb(251,253,254)" stroke="rgb(251,253,254)" stroke-width="1" opacity="1" d="M 634.5 1205 L 633.5 1207 L 634.5 1205 Z " /><path fill="rgb(251,253,254)" stroke="rgb(251,253,254)" stroke-width="1" opacity="1" d="M 635.5 1207 L 636.5 1209 L 635.5 1207 Z " /><path fill="rgb(251,253,254)" stroke="rgb(251,253,254)" stroke-width="1" opacity="1" d="M 952.5 1208 L 951.5 1210 L 952.5 1208 Z " /><path fill="rgb(251,253,254)" stroke="rgb(251,253,254)" stroke-width="1" opacity="1" d="M 636.5 1211 L 638.5 1211 L 643 1215.5 L 638.5 1212 L 636.5 1214 L 635 1213.5 L 637 1212.5 L 636.5 1211 Z " /><path fill="rgb(251,253,254)" stroke="rgb(251,253,254)" stroke-width="1" opacity="1" d="M 948.5 1211 L 951 1211.5 L 949.5 1213 L 947 1212.5 L 948.5 1211 Z " /><path fill="rgb(251,253,254)" stroke="rgb(251,253,254)" stroke-width="1" opacity="1" d="M 644.5 1216 L 648 1218.5 L 646.5 1219 L 644.5 1216 Z " /><path fill="rgb(251,253,254)" stroke="rgb(251,253,254)" stroke-width="1" opacity="1" d="M 940.5 1216 L 937.5 1222 Q 934.3 1220.3 938 1218.5 Q 937.3 1216.3 939.5 1217 L 940.5 1216 Z " /><path fill="rgb(251,253,254)" stroke="rgb(251,253,254)" stroke-width="1" opacity="1" d="M 1004.5 1217 L 1002.5 1220 L 1001.5 1218 Q 1003 1220.5 1004.5 1217 Z " /><path fill="rgb(251,253,254)" stroke="rgb(251,253,254)" stroke-width="1" opacity="1" d="M 1350.5 1218 L 1349.5 1220 L 1350.5 1218 Z " /><path fill="rgb(251,253,254)" stroke="rgb(251,253,254)" stroke-width="1" opacity="1" d="M 932.5 1221 L 935 1221.5 Q 932.9 1224.8 932.5 1221 Z " /><path fill="rgb(251,253,254)" stroke="rgb(251,253,254)" stroke-width="1" opacity="1" d="M 914.5 1224 L 916.5 1225 Q 917.8 1222.8 919 1225.5 L 915.5 1225 L 914.5 1224 Z " /><path fill="rgb(251,253,254)" stroke="rgb(251,253,254)" stroke-width="1" opacity="1" d="M 670.5 1225 L 671.5 1227 L 670.5 1225 Z " /><path fill="rgb(251,253,254)" stroke="rgb(251,253,254)" stroke-width="1" opacity="1" d="M 907 1225 Q 910 1224 909 1227 Q 906 1228 907 1225 Z " /><path fill="rgb(251,253,254)" stroke="rgb(251,253,254)" stroke-width="1" opacity="1" d="M 1348.5 1225 L 1347.5 1227 L 1348.5 1225 Z " /><path fill="rgb(251,253,254)" stroke="rgb(251,253,254)" stroke-width="1" opacity="1" d="M 898.5 1226 L 901 1226.5 L 897.5 1228 L 898.5 1226 Z " /><path fill="rgb(251,253,254)" stroke="rgb(251,253,254)" stroke-width="1" opacity="1" d="M 691.5 1228 L 692.5 1230 L 691.5 1228 Z " /><path fill="rgb(251,253,254)" stroke="rgb(251,253,254)" stroke-width="1" opacity="1" d="M 1006.5 1229 L 1005.5 1231 L 1006.5 1229 Z " /><path fill="rgb(252,254,255)" stroke="rgb(252,254,255)" stroke-width="1" opacity="1" d="M 0 0 L 2083 0 L 2083 2083 L 0 2083 L 0 0 Z M 789 856 L 779 858 L 775 857 L 773 859 L 758 862 L 756 862 L 748 866 L 745 867 Q 746 869 744 868 L 742 868 L 741 870 L 736 872 L 732 876 L 731 875 L 730 877 L 718 886 L 710 898 Q 711 900 708 899 L 704 909 Q 700 910 703 912 L 700 917 Q 701 919 699 918 L 699 920 L 696 929 L 694 929 L 695 931 L 693 936 Q 694 940 692 939 L 692 941 L 687 958 L 687 960 L 685 963 Q 686 967 684 966 L 684 968 L 682 976 L 682 978 L 679 988 L 678 998 L 678 1000 Q 679 1004 677 1006 L 681 1025 L 681 1027 L 683 1027 L 694 1042 L 696 1041 L 702 1045 L 704 1045 L 712 1048 Q 713 1051 715 1049 L 726 1052 L 733 1052 L 735 1052 L 740 1053 L 742 1053 Q 746 1052 748 1054 L 749 1053 L 770 1052 L 771 1051 L 776 1052 L 778 1050 Q 789 1050 796 1045 L 798 1046 L 798 1044 L 810 1040 L 824 1030 L 826 1030 L 834 1020 L 838 1017 L 852 992 L 859 968 Q 862 966 860 965 L 865 949 L 865 947 L 867 940 Q 870 938 868 937 L 872 924 L 873 915 L 873 913 L 874 909 L 873 907 L 873 905 L 874 902 L 873 900 L 874 896 L 870 885 L 871 883 Q 868 884 869 882 L 869 880 L 867 878 L 863 872 L 862 872 L 847 862 L 833 858 L 821 857 L 820 856 L 789 856 Z M 912 856 L 912 860 L 911 860 L 911 862 L 908 871 Q 909 875 907 874 L 907 876 L 896 914 L 896 916 L 893 926 Q 889 927 892 929 L 891 933 Q 887 934 890 936 L 887 945 Q 888 948 886 947 L 886 949 Q 887 951 885 950 L 885 952 L 884 958 L 882 959 L 883 961 L 881 961 L 882 963 L 880 970 Q 876 971 879 973 L 878 976 Q 879 979 877 978 L 877 980 L 876 983 Q 877 986 875 985 L 875 987 L 873 996 L 871 997 L 872 999 Q 868 1000 871 1002 L 869 1007 Q 870 1011 868 1010 L 868 1012 L 856 1053 L 920 1053 L 921 1054 L 923 1053 Q 925 1052 923 1051 L 924 1046 L 927 1046 L 925 1045 L 940 994 Q 938 989 942 990 L 941 989 L 942 986 Q 941 982 944 983 L 943 982 L 944 977 L 963 978 L 957 997 Q 958 999 955 998 L 956 1001 L 949 1024 Q 950 1028 948 1027 L 948 1029 L 943 1046 L 943 1048 L 941 1053 L 1005 1053 L 1006 1054 L 1008 1051 Q 1011 1049 1009 1048 L 1019 1013 L 1019 1011 L 1025 992 L 1027 990 L 1026 987 L 1028 982 L 1028 980 L 1033 964 L 1035 962 L 1034 958 L 1037 958 L 1035 957 L 1037 949 Q 1040 947 1038 946 Q 1037 943 1040 944 L 1039 943 L 1042 933 L 1042 931 L 1044 926 L 1044 924 L 1053 895 Q 1052 891 1055 892 L 1054 891 L 1064 858 L 1064 856 L 997 856 L 995 865 Q 991 866 994 868 Q 995 871 993 870 L 993 872 L 992 875 L 992 877 L 991 879 L 989 881 L 989 887 L 986 894 L 984 905 L 981 910 L 982 912 Q 978 913 981 915 L 978 922 L 978 924 L 960 924 L 961 920 Q 960 916 963 917 L 962 916 Q 961 912 965 913 L 963 911 Q 966 909 964 908 L 966 902 L 966 900 L 968 895 L 968 893 L 979 857 L 912 856 Z M 1109 856 Q 1104 858 1107 860 L 1103 875 L 1101 876 L 1102 879 L 1099 880 L 1101 880 L 1100 882 Q 1102 887 1099 886 L 1099 888 L 1095 901 L 1096 904 L 1363 904 L 1359 920 L 1356 919 L 1355 920 L 1091 920 L 1087 929 Q 1088 932 1086 931 L 1086 933 Q 1087 935 1085 934 L 1085 936 L 1084 939 Q 1085 943 1083 942 L 1083 944 L 1080 954 Q 1076 955 1079 957 L 1078 960 Q 1079 963 1077 962 L 1077 964 L 1076 968 L 1341 968 L 1342 969 L 1345 968 L 1339 989 L 1340 992 L 1415 992 L 1422 966 L 1424 963 L 1425 956 Q 1428 954 1426 953 L 1431 937 Q 1430 934 1433 935 L 1432 934 L 1435 921 Q 1438 919 1436 918 L 1442 899 L 1442 897 L 1443 895 Q 1442 891 1445 892 L 1444 889 L 1448 874 L 1451 873 L 1449 872 L 1450 868 Q 1453 866 1451 865 L 1454 857 L 1109 856 Z M 1070 1005 L 1065 1006 L 1065 1008 L 1062 1016 Q 1063 1019 1061 1018 L 1061 1020 L 1056 1038 Q 1052 1039 1055 1041 L 1051 1055 L 1398 1055 L 1397 1053 L 1399 1053 L 1398 1051 L 1401 1041 L 1401 1039 L 1407 1020 L 1407 1018 L 1411 1008 Q 1412 1005 1410 1006 L 1408 1006 L 1071 1006 L 1070 1005 Z M 829 1028 L 829 1029 L 831 1029 L 829 1028 Z M 723 1053 L 721 1055 L 723 1055 L 723 1053 Z M 1048 1069 L 1045 1076 L 1045 1078 L 1043 1083 L 1043 1085 L 1039 1097 L 1037 1099 L 1038 1102 L 1036 1107 L 1036 1109 L 1034 1110 L 1035 1112 L 1033 1116 L 1038 1116 L 1040 1116 L 1297 1116 L 1298 1117 L 1302 1116 L 1301 1124 L 1300 1125 L 1030 1125 L 1027 1140 Q 1023 1141 1026 1143 Q 1027 1145 1025 1144 L 1025 1146 L 1023 1154 Q 1019 1155 1022 1157 L 1020 1163 L 1020 1165 L 1012 1190 Q 1013 1194 1011 1193 L 1011 1195 L 1005 1217 Q 1001 1218 1004 1220 L 1002 1227 L 1005 1228 L 1006 1227 L 1348 1227 Q 1350 1226 1348 1225 L 1349 1221 Q 1352 1219 1350 1218 Q 1349 1215 1352 1216 L 1351 1215 L 1353 1207 Q 1356 1205 1354 1204 L 1356 1198 L 1356 1196 L 1360 1186 L 1360 1182 L 1092 1182 L 1091 1180 L 1094 1180 L 1092 1179 L 1094 1172 L 1360 1172 L 1361 1173 L 1363 1172 L 1364 1173 Q 1363 1166 1366 1167 L 1365 1166 L 1371 1144 Q 1374 1142 1372 1141 L 1379 1118 L 1379 1116 L 1381 1109 L 1384 1109 L 1382 1108 L 1385 1098 Q 1383 1093 1387 1094 L 1386 1093 L 1392 1074 Q 1392 1069 1392 1069 L 1048 1069 Z M 724 1088 L 723 1089 L 709 1090 L 707 1090 Q 708 1093 703 1091 L 701 1091 Q 699 1094 695 1093 L 693 1093 L 692 1095 L 680 1099 L 663 1110 L 654 1120 L 651 1122 L 651 1124 L 644 1133 L 638 1148 L 636 1150 L 632 1169 L 630 1170 L 631 1172 L 631 1174 Q 629 1175 630 1180 L 629 1185 L 632 1202 L 638 1212 L 647 1219 L 665 1225 Q 667 1224 666 1227 L 667 1227 Q 666 1224 670 1225 Q 671 1228 673 1226 L 686 1227 L 688 1227 L 897 1227 L 898 1228 L 902 1226 Q 906 1225 908 1227 L 909 1227 L 910 1225 L 916 1225 L 918 1225 Q 922 1222 929 1222 L 937 1218 L 939 1219 L 943 1216 Q 944 1212 946 1215 L 946 1213 L 962 1202 L 974 1184 L 976 1185 L 974 1183 L 977 1180 L 976 1179 L 979 1175 L 984 1156 Q 987 1154 985 1153 L 987 1144 L 987 1140 L 988 1136 L 987 1123 L 983 1112 Q 979 1110 982 1109 L 981 1108 L 975 1101 Q 973 1102 972 1099 Q 969 1100 970 1098 L 969 1098 L 957 1092 Q 953 1093 954 1091 L 953 1091 L 942 1089 L 933 1089 L 932 1088 L 724 1088 Z " /><path fill="rgb(252,254,255)" stroke="rgb(252,254,255)" stroke-width="1" opacity="1" d="M 785.5 906 L 790.5 907 L 792.5 906 L 796.5 907 L 801 910.5 L 803 918.5 L 801 927.5 L 798 933.5 L 798 935.5 L 793 955.5 L 790 959.5 L 791 962.5 L 783 988.5 L 775.5 998 Q 769.8 1003.5 759 1003 L 758.5 1001 L 755.5 1002 L 749 996.5 L 748 993.5 L 749 990.5 L 749 985.5 L 751 982.5 L 751 978.5 L 754 968 L 756 967.5 L 755 964.5 L 758 960.5 L 757 957.5 L 762 944.5 L 762 942.5 L 764 937.5 L 763.5 936 L 765 936.5 L 764 933.5 L 768 920 L 770 919.5 L 770 917.5 L 773 912 L 782.5 907 Q 784 909.5 785.5 906 Z M 770 995 L 770 997 L 772 996 L 770 995 Z " /><path fill="rgb(252,254,255)" stroke="rgb(252,254,255)" stroke-width="1" opacity="1" d="M 729.5 1140 L 897.5 1140 L 907 1144.5 L 906.5 1146 Q 909.1 1145.2 908 1148.5 L 909 1151.5 Q 905.5 1153 908 1154.5 Q 907.7 1162.2 903.5 1166 L 902 1166.5 L 903 1167.5 L 899.5 1171 L 892.5 1174 L 891 1173.5 L 890.5 1175 L 888.5 1175 L 719.5 1175 L 718.5 1174 L 716.5 1175 L 710 1170.5 L 709 1162.5 Q 711.4 1150.4 719.5 1144 L 721.5 1143 Q 723 1145.5 724.5 1142 L 729.5 1140 Z M 895 1168 Q 893 1171 896 1170 L 895 1168 Z " /></svg>